<?xml version="1.0" encoding="UTF-8"?>
<svg width="1080" height="1350" viewBox="0 0 1080 1350" xmlns="http://www.w3.org/2000/svg">
  <rect width="1080" height="1350" fill="#F6F3EF"/>
  <circle cx="52" cy="44" r="1" fill="#B89A8B" opacity="0.035" />
<circle cx="149" cy="193" r="2" fill="#B89A8B" opacity="0.043000000000000003" />
<circle cx="246" cy="342" r="3" fill="#B89A8B" opacity="0.051000000000000004" />
<circle cx="343" cy="491" r="1" fill="#B89A8B" opacity="0.059000000000000004" />
<circle cx="440" cy="640" r="2" fill="#B89A8B" opacity="0.067" />
<circle cx="537" cy="789" r="3" fill="#B89A8B" opacity="0.035" />
<circle cx="634" cy="938" r="1" fill="#B89A8B" opacity="0.043000000000000003" />
<circle cx="731" cy="1087" r="2" fill="#B89A8B" opacity="0.051000000000000004" />
<circle cx="828" cy="1236" r="3" fill="#B89A8B" opacity="0.059000000000000004" />
<circle cx="925" cy="125" r="1" fill="#B89A8B" opacity="0.067" />
<circle cx="1022" cy="274" r="2" fill="#B89A8B" opacity="0.035" />
<circle cx="143" cy="423" r="3" fill="#B89A8B" opacity="0.043000000000000003" />
<circle cx="240" cy="572" r="1" fill="#B89A8B" opacity="0.051000000000000004" />
<circle cx="337" cy="721" r="2" fill="#B89A8B" opacity="0.059000000000000004" />
<circle cx="434" cy="870" r="3" fill="#B89A8B" opacity="0.067" />
<circle cx="531" cy="1019" r="1" fill="#B89A8B" opacity="0.035" />
<circle cx="628" cy="1168" r="2" fill="#B89A8B" opacity="0.043000000000000003" />
<circle cx="725" cy="57" r="3" fill="#B89A8B" opacity="0.051000000000000004" />
<circle cx="822" cy="206" r="1" fill="#B89A8B" opacity="0.059000000000000004" />
<circle cx="919" cy="355" r="2" fill="#B89A8B" opacity="0.067" />
<circle cx="1016" cy="504" r="3" fill="#B89A8B" opacity="0.035" />
<circle cx="137" cy="653" r="1" fill="#B89A8B" opacity="0.043000000000000003" />
<circle cx="234" cy="802" r="2" fill="#B89A8B" opacity="0.051000000000000004" />
<circle cx="331" cy="951" r="3" fill="#B89A8B" opacity="0.059000000000000004" />
<circle cx="428" cy="1100" r="1" fill="#B89A8B" opacity="0.067" />
<circle cx="525" cy="1249" r="2" fill="#B89A8B" opacity="0.035" />
<circle cx="622" cy="138" r="3" fill="#B89A8B" opacity="0.043000000000000003" />
<circle cx="719" cy="287" r="1" fill="#B89A8B" opacity="0.051000000000000004" />
<circle cx="816" cy="436" r="2" fill="#B89A8B" opacity="0.059000000000000004" />
<circle cx="913" cy="585" r="3" fill="#B89A8B" opacity="0.067" />
<circle cx="1010" cy="734" r="1" fill="#B89A8B" opacity="0.035" />
<circle cx="131" cy="883" r="2" fill="#B89A8B" opacity="0.043000000000000003" />
<circle cx="228" cy="1032" r="3" fill="#B89A8B" opacity="0.051000000000000004" />
<circle cx="325" cy="1181" r="1" fill="#B89A8B" opacity="0.059000000000000004" />
<circle cx="422" cy="70" r="2" fill="#B89A8B" opacity="0.067" />
<circle cx="519" cy="219" r="3" fill="#B89A8B" opacity="0.035" />
<circle cx="616" cy="368" r="1" fill="#B89A8B" opacity="0.043000000000000003" />
<circle cx="713" cy="517" r="2" fill="#B89A8B" opacity="0.051000000000000004" />
<circle cx="810" cy="666" r="3" fill="#B89A8B" opacity="0.059000000000000004" />
<circle cx="907" cy="815" r="1" fill="#B89A8B" opacity="0.067" />
<circle cx="1004" cy="964" r="2" fill="#B89A8B" opacity="0.035" />
<circle cx="125" cy="1113" r="3" fill="#B89A8B" opacity="0.043000000000000003" />
<circle cx="222" cy="1262" r="1" fill="#B89A8B" opacity="0.051000000000000004" />
<circle cx="319" cy="151" r="2" fill="#B89A8B" opacity="0.059000000000000004" />
<circle cx="416" cy="300" r="3" fill="#B89A8B" opacity="0.067" />
<circle cx="513" cy="449" r="1" fill="#B89A8B" opacity="0.035" />
<circle cx="610" cy="598" r="2" fill="#B89A8B" opacity="0.043000000000000003" />
<circle cx="707" cy="747" r="3" fill="#B89A8B" opacity="0.051000000000000004" />
<circle cx="804" cy="896" r="1" fill="#B89A8B" opacity="0.059000000000000004" />
<circle cx="901" cy="1045" r="2" fill="#B89A8B" opacity="0.067" />
<circle cx="998" cy="1194" r="3" fill="#B89A8B" opacity="0.035" />
<circle cx="119" cy="83" r="1" fill="#B89A8B" opacity="0.043000000000000003" />
<circle cx="216" cy="232" r="2" fill="#B89A8B" opacity="0.051000000000000004" />
<circle cx="313" cy="381" r="3" fill="#B89A8B" opacity="0.059000000000000004" />
<circle cx="410" cy="530" r="1" fill="#B89A8B" opacity="0.067" />
<circle cx="507" cy="679" r="2" fill="#B89A8B" opacity="0.035" />
<circle cx="604" cy="828" r="3" fill="#B89A8B" opacity="0.043000000000000003" />
<circle cx="701" cy="977" r="1" fill="#B89A8B" opacity="0.051000000000000004" />
<circle cx="798" cy="1126" r="2" fill="#B89A8B" opacity="0.059000000000000004" />
<circle cx="895" cy="1275" r="3" fill="#B89A8B" opacity="0.067" />
<circle cx="992" cy="164" r="1" fill="#B89A8B" opacity="0.035" />
<circle cx="113" cy="313" r="2" fill="#B89A8B" opacity="0.043000000000000003" />
<circle cx="210" cy="462" r="3" fill="#B89A8B" opacity="0.051000000000000004" />
<circle cx="307" cy="611" r="1" fill="#B89A8B" opacity="0.059000000000000004" />
<circle cx="404" cy="760" r="2" fill="#B89A8B" opacity="0.067" />
<circle cx="501" cy="909" r="3" fill="#B89A8B" opacity="0.035" />
<circle cx="598" cy="1058" r="1" fill="#B89A8B" opacity="0.043000000000000003" />
<circle cx="695" cy="1207" r="2" fill="#B89A8B" opacity="0.051000000000000004" />
<circle cx="792" cy="96" r="3" fill="#B89A8B" opacity="0.059000000000000004" />
<circle cx="889" cy="245" r="1" fill="#B89A8B" opacity="0.067" />
<circle cx="986" cy="394" r="2" fill="#B89A8B" opacity="0.035" />
<circle cx="107" cy="543" r="3" fill="#B89A8B" opacity="0.043000000000000003" />
<circle cx="204" cy="692" r="1" fill="#B89A8B" opacity="0.051000000000000004" />
<circle cx="301" cy="841" r="2" fill="#B89A8B" opacity="0.059000000000000004" />
<circle cx="398" cy="990" r="3" fill="#B89A8B" opacity="0.067" />
<circle cx="495" cy="1139" r="1" fill="#B89A8B" opacity="0.035" />
<circle cx="592" cy="1288" r="2" fill="#B89A8B" opacity="0.043000000000000003" />
<circle cx="689" cy="177" r="3" fill="#B89A8B" opacity="0.051000000000000004" />
<circle cx="786" cy="326" r="1" fill="#B89A8B" opacity="0.059000000000000004" />
<circle cx="883" cy="475" r="2" fill="#B89A8B" opacity="0.067" />
<circle cx="980" cy="624" r="3" fill="#B89A8B" opacity="0.035" />
<circle cx="101" cy="773" r="1" fill="#B89A8B" opacity="0.043000000000000003" />
<circle cx="198" cy="922" r="2" fill="#B89A8B" opacity="0.051000000000000004" />
<circle cx="295" cy="1071" r="3" fill="#B89A8B" opacity="0.059000000000000004" />
<circle cx="392" cy="1220" r="1" fill="#B89A8B" opacity="0.067" />
<circle cx="489" cy="109" r="2" fill="#B89A8B" opacity="0.035" />
<circle cx="586" cy="258" r="3" fill="#B89A8B" opacity="0.043000000000000003" />
<circle cx="683" cy="407" r="1" fill="#B89A8B" opacity="0.051000000000000004" />
<circle cx="780" cy="556" r="2" fill="#B89A8B" opacity="0.059000000000000004" />
<circle cx="877" cy="705" r="3" fill="#B89A8B" opacity="0.067" />
  <rect x="80" y="86" width="920" height="1178" rx="44" fill="#FDFCFB" stroke="#E7E2DE" stroke-width="3"/>
  <path d="M138 184 H942" stroke="#E7E2DE" stroke-width="2"/>
  <text x="138" y="154" font-family="Arial, sans-serif" font-size="24" letter-spacing="3" text-transform="uppercase" fill="#8F867E">A calmer frame</text>
  <text x="138" y="330" font-family="Georgia, serif" font-size="68" font-weight="500" fill="#3F3A36">The goal is not to</text>
<text x="138" y="407.52" font-family="Georgia, serif" font-size="68" font-weight="500" fill="#3F3A36">predict your body.</text>
  <text x="142" y="581.04" font-family="Arial, sans-serif" font-size="34" fill="#5A5550">Your body does not need to match a</text>
<text x="142" y="629.04" font-family="Arial, sans-serif" font-size="34" fill="#5A5550">forecast.</text>
  
      <g transform="translate(650 774)">
        <rect x="0" y="0" width="320" height="320" rx="28" fill="#FBF7F1" stroke="#E7E2DE" stroke-width="3"/>
        <path d="M72 214 C112 162 162 252 240 118" stroke="#8F867E" stroke-width="4" fill="none" stroke-dasharray="10 12" stroke-linecap="round"/>
        <path d="M70 214 C118 208 158 190 242 172" stroke="#B89A8B" stroke-width="4" fill="none" stroke-linecap="round" stroke-linejoin="round"/>
        <line x1="76" y1="74" x2="244" y2="74" stroke="#E7E2DE" stroke-width="4"/>
        <text x="66" y="278" font-family="Arial, sans-serif" font-size="26" fill="#8F867E">notice, not forecast</text>
      </g>
  <g transform="translate(138 1132)">
    
    <line x1="0" y1="0" x2="804" y2="0" stroke="#E7E2DE" stroke-width="2"/>
    <text x="0" y="64" font-family="Arial, sans-serif" font-size="28" fill="#5A5550">No prediction claims. No pressure.</text>
    <text x="0" y="126" font-family="Arial, sans-serif" font-size="24" fill="#8F867E">@wellwithinapp</text>
    <text x="748" y="126" text-anchor="end" font-family="Arial, sans-serif" font-size="24" fill="#8F867E">5/7</text>
  </g>
</svg>